<svg preserveAspectRatio="none" width="100%" height="100%" overflow="visible" style="display: block;" viewBox="0 0 20 20" fill="none" xmlns="http://www.w3.org/2000/svg">
<g id="heart">
<path id="Vector" d="M17.3667 3.84167C16.941 3.41584 16.4357 3.07804 15.8795 2.84757C15.3232 2.6171 14.7271 2.49848 14.125 2.49848C13.5229 2.49848 12.9268 2.6171 12.3705 2.84757C11.8143 3.07804 11.309 3.41584 10.8833 3.84167L10 4.725L9.11667 3.84167C8.25692 2.98192 7.09086 2.49893 5.875 2.49893C4.65914 2.49893 3.49307 2.98192 2.63333 3.84167C1.77359 4.70141 1.29059 5.86747 1.29059 7.08333C1.29059 8.2992 1.77359 9.46526 2.63333 10.325L3.51666 11.2083L10 17.6917L16.4833 11.2083L17.3667 10.325C17.7925 9.89937 18.1303 9.39401 18.3608 8.8378C18.5912 8.28158 18.7099 7.68541 18.7099 7.08333C18.7099 6.48126 18.5912 5.88509 18.3608 5.32887C18.1303 4.77266 17.7925 4.2673 17.3667 3.84167V3.84167Z" stroke="var(--stroke-0, black)" stroke-width="2" stroke-linecap="round" stroke-linejoin="round"/>
</g>
</svg>
