<svg preserveAspectRatio="none" width="100%" height="100%" overflow="visible" style="display: block;" viewBox="0 0 24.7619 24.7997" fill="none" xmlns="http://www.w3.org/2000/svg">
<g id="Group">
<path id="Vector" d="M13.4768 0.453819C13.1861 0.163239 12.792 0 12.381 0C11.9699 0 11.5758 0.163239 11.2851 0.453819L0.435103 11.3038C0.152758 11.5962 -0.00347296 11.9877 5.85941e-05 12.3941C0.00359014 12.8005 0.166602 13.1893 0.453985 13.4766C0.741367 13.764 1.13013 13.927 1.53653 13.9306C1.94294 13.9341 2.33447 13.7779 2.6268 13.4955L3.08095 13.0414V23.2497C3.08095 23.6608 3.24426 24.055 3.53494 24.3457C3.82562 24.6364 4.21987 24.7997 4.63095 24.7997H7.73095C8.14204 24.7997 8.53629 24.6364 8.82697 24.3457C9.11765 24.055 9.28095 23.6608 9.28095 23.2497V20.1497C9.28095 19.7386 9.44426 19.3443 9.73494 19.0537C10.0256 18.763 10.4199 18.5997 10.831 18.5997H13.931C14.342 18.5997 14.7363 18.763 15.027 19.0537C15.3177 19.3443 15.481 19.7386 15.481 20.1497V23.2497C15.481 23.6608 15.6443 24.055 15.9349 24.3457C16.2256 24.6364 16.6199 24.7997 17.031 24.7997H20.131C20.542 24.7997 20.9363 24.6364 21.227 24.3457C21.5177 24.055 21.681 23.6608 21.681 23.2497V13.0414L22.1351 13.4955C22.4274 13.7779 22.819 13.9341 23.2254 13.9306C23.6318 13.927 24.0205 13.764 24.3079 13.4766C24.5953 13.1893 24.7583 12.8005 24.7619 12.3941C24.7654 11.9877 24.6092 11.5962 24.3268 11.3038L13.4768 0.453819V0.453819Z" fill="var(--fill-0, #FA4A0C)"/>
</g>
</svg>
