<svg preserveAspectRatio="none" width="100%" height="100%" overflow="visible" style="display: block;" viewBox="0 0 16 16" fill="none" xmlns="http://www.w3.org/2000/svg">
<g id="cib:paypal">
<path id="Vector" d="M5.481 9.247C5.3715 9.847 4.9375 12.644 4.809 13.4345C4.7995 13.491 4.7775 13.5125 4.715 13.5125H2.384C2.3293 13.5129 2.27518 13.5014 2.22532 13.4789C2.17547 13.4564 2.13108 13.4234 2.09518 13.3821C2.05928 13.3408 2.03272 13.2923 2.01733 13.2398C2.00194 13.1873 1.99807 13.1321 2.006 13.078L3.8375 1.456C3.86273 1.30844 3.93927 1.17453 4.05363 1.07793C4.16799 0.981317 4.3128 0.928217 4.4625 0.928C9.222 0.928 9.622 0.8125 10.8375 1.2845C12.7155 2.0125 12.8875 3.769 12.2125 5.669C11.5405 7.6255 9.947 8.466 7.8345 8.491C6.4785 8.513 5.6625 8.272 5.4815 9.247H5.481ZM13.1595 4.75C13.103 4.7095 13.0815 4.6935 13.0655 4.7905C12.9999 5.1468 12.9079 5.49776 12.7905 5.8405C11.5435 9.397 8.0875 9.0875 6.4 9.0875C6.2095 9.0875 6.0845 9.1905 6.0595 9.381C5.3535 13.7685 5.2125 14.684 5.2125 14.684C5.181 14.906 5.322 15.087 5.5435 15.087H7.528C7.797 15.087 8.0185 14.89 8.072 14.6215C8.094 14.453 8.0375 14.812 8.522 11.7685C8.666 11.081 8.969 11.153 9.4375 11.153C11.6565 11.153 13.3875 10.253 13.903 7.6435C14.106 6.556 14.047 5.412 13.1595 4.7495V4.75Z" fill="var(--fill-0, white)"/>
</g>
</svg>
