<svg preserveAspectRatio="none" width="100%" height="100%" overflow="visible" style="display: block;" viewBox="0 0 20 19.2" fill="none" xmlns="http://www.w3.org/2000/svg">
<g id="whh:securityalt" clip-path="url(#clip0_1420_100)">
<path id="Vector" d="M10.008 19.2C8.91536 18.675 7.92674 18.1188 7.04219 17.5313C6.15764 16.9438 5.38365 16.3813 4.72024 15.8438C4.05683 15.3063 3.47471 14.6688 2.9739 13.9313C2.47308 13.1938 2.05682 12.5531 1.72512 12.0094C1.39341 11.4656 1.11699 10.75 0.895849 9.8625C0.674711 8.975 0.505605 8.24688 0.388532 7.67813C0.271459 7.10938 0.183654 6.29375 0.125117 5.23125C0.0665804 4.16875 0.0340601 3.3375 0.027556 2.7375C0.021052 2.1375 0.0177999 1.225 0.0177999 0C0.0177999 0.325 0.505605 0.60625 1.48121 0.84375C2.45682 1.08125 3.63406 1.2 5.01292 1.2C6.39178 1.2 7.56902 1.08125 8.54463 0.84375C9.52024 0.60625 10.008 0.325 10.008 0C10.008 0.325 10.4959 0.60625 11.4715 0.84375C12.4471 1.08125 13.6243 1.2 15.0032 1.2C16.382 1.2 17.5593 1.08125 18.5349 0.84375C19.5105 0.60625 19.9983 0.325 19.9983 0C19.9983 1.225 19.995 2.1375 19.9885 2.7375C19.982 3.3375 19.9495 4.16875 19.891 5.23125C19.8324 6.29375 19.7446 7.10938 19.6276 7.67813C19.5105 8.24688 19.3414 8.975 19.1202 9.8625C18.8991 10.75 18.6227 11.4656 18.291 12.0094C17.9593 12.5531 17.543 13.1938 17.0422 13.9313C16.5414 14.6688 15.9593 15.3063 15.2959 15.8438C14.6324 16.3813 13.8585 16.9438 12.9739 17.5313C12.0893 18.1188 11.1007 18.675 10.008 19.2ZM10.008 2.4C10.008 2.725 9.64057 3.00625 8.90561 3.24375C8.17065 3.48125 7.28935 3.6 6.2617 3.6C5.55926 3.6 4.86333 3.54375 4.1739 3.43125C3.48447 3.31875 2.93162 3.16875 2.51536 2.98125C2.51536 3.96875 2.52837 4.7625 2.55439 5.3625C2.5804 5.9625 2.64219 6.67813 2.73975 7.50938C2.83731 8.34063 2.98365 9.025 3.17878 9.5625C3.3739 10.1 3.65357 10.7063 4.0178 11.3813C4.38203 12.0563 4.82756 12.6438 5.35439 13.1438C5.88122 13.6438 6.53487 14.1625 7.31536 14.7C8.09585 15.2375 8.99341 15.7375 10.008 16.2V2.4Z" fill="var(--fill-0, white)"/>
</g>
<defs>
<clipPath id="clip0_1420_100">
<rect width="20" height="19.2" fill="white"/>
</clipPath>
</defs>
</svg>
