<svg preserveAspectRatio="none" width="100%" height="100%" overflow="visible" style="display: block;" viewBox="0 0 20 20" fill="none" xmlns="http://www.w3.org/2000/svg">
<g id="iwwa:swipe">
<path id="Vector" d="M10.7375 2.665C10.7165 2.6545 8.636 1.6665 6.9805 1.5405C5.2405 1.405 3.497 2.3285 3.479 2.3385L3.2435 1.897C3.3195 1.8565 5.1335 0.901 7.0185 1.0415C8.768 1.1755 10.8645 2.172 10.953 2.214L10.7375 2.665V2.665Z" fill="var(--fill-0, black)"/>
<path id="Vector_2" d="M8.9785 3.6485L8.7595 3.199L10.4745 2.363L9.3665 0.8405L9.771 0.5465L11.2295 2.5505L8.9785 3.6485Z" fill="var(--fill-0, black)"/>
<g id="Group">
<path id="Vector_3" d="M1.5115 4.957L1.296 4.506C1.3845 4.464 3.481 3.4675 5.231 3.3335C7.11 3.1965 8.9295 4.1485 9.0055 4.189L8.77 4.6305C8.7525 4.621 7.0035 3.697 5.269 3.8325C3.6135 3.9585 1.5325 4.947 1.5115 4.957V4.957Z" fill="var(--fill-0, black)"/>
<path id="Vector_4" d="M3.271 5.9405L1.0195 4.8425L2.478 2.8385L2.8825 3.1325L1.7745 4.655L3.4895 5.491L3.271 5.9405Z" fill="var(--fill-0, black)"/>
</g>
<g id="Group_2">
<path id="Vector_5" d="M12.669 19.719C12.0325 19.719 11.387 19.65 10.803 19.52C9.8065 19.298 7.71 17.6985 7.2665 17.239C6.8655 16.8235 5.7915 15.2285 5.634 13.931C5.565 13.366 5.9985 11.6825 6.529 11.0835C6.6335 10.966 6.743 10.887 6.855 10.848C6.83247 10.7965 6.80963 10.7452 6.7865 10.694C6.4415 9.943 5.9305 9.0755 5.4795 8.3095C4.716 7.0125 4.4315 6.4945 4.4795 6.1995C4.56 5.6995 4.97 5.1225 5.516 5.0215L5.6125 5.002C5.75326 4.96807 5.89725 4.9493 6.042 4.946C6.5185 4.946 6.955 5.218 7.4165 5.8015C7.816 6.307 8.463 7.7025 9.0075 8.965C8.9825 8.647 8.992 8.3815 9.059 8.2265C9.329 7.6 10.082 7.3535 10.3115 7.339L10.368 7.3375C10.5135 7.3375 11.258 7.374 11.603 8.098C11.658 8.214 11.7105 8.339 11.759 8.4655C11.821 8.2505 11.909 8.063 12.0345 7.956C12.4205 7.628 12.949 7.458 13.3085 7.559C13.695 7.6675 14.0205 8.0765 14.138 8.603C14.1885 8.489 14.2495 8.3965 14.3215 8.3425C14.671 8.0805 15.279 8.0525 15.664 8.3195C16.134 8.6455 17.215 10.5985 17.405 12.3065C17.5605 13.7105 17.736 16.2195 17.1565 17.2535C16.5545 18.326 15.323 19.159 14.4335 19.4785C14.0005 19.633 13.374 19.719 12.669 19.719V19.719ZM7.034 11.329C6.702 11.362 6.0515 13.222 6.13 13.8695C6.271 15.0335 7.2705 16.5225 7.6265 16.8915C8.05 17.3305 10.055 18.8405 10.911 19.031C11.4605 19.1535 12.0675 19.2185 12.6685 19.2185C13.308 19.2185 13.889 19.141 14.263 19.006C14.9355 18.7645 16.1435 18.033 16.719 17.0065C17.093 16.341 17.1615 14.647 16.907 12.3605C16.7265 10.7315 15.673 8.9335 15.3785 8.7285C15.142 8.565 14.748 8.645 14.6205 8.741C14.55 8.8215 14.4455 9.2925 14.405 9.741L14.2795 11.1245L13.915 9.784C13.915 9.784 13.753 9.189 13.651 8.7175C13.564 8.319 13.342 8.086 13.1725 8.039C12.986 7.986 12.6115 8.1195 12.358 8.3355C12.22 8.453 12.1175 9.132 12.113 9.667L12.094 11.7455L11.6195 9.7215C11.6175 9.7125 11.419 8.87 11.1515 8.3115C10.9355 7.8585 10.4605 7.8355 10.368 7.8355C10.2225 7.8455 9.69 8.0245 9.518 8.423C9.398 8.7025 9.67 10.161 9.9905 11.3515L9.5165 11.5075C9.5 11.464 7.7575 7.0365 7.025 6.11C6.554 5.514 6.239 5.445 6.043 5.445C5.933 5.445 5.827 5.467 5.7155 5.4905L5.608 5.512C5.327 5.564 5.0315 5.9225 4.973 6.279C4.9775 6.47 5.495 7.349 5.911 8.0555C6.3675 8.8315 6.8855 9.711 7.241 10.4845C7.3315 10.681 7.4155 10.8855 7.493 11.0945L7.494 11.098C8.0365 11.8455 8.3065 14.304 8.336 14.5865L7.8395 14.644C7.8375 14.6265 7.6085 12.8755 7.0535 11.3475C7.04743 11.3409 7.04091 11.3347 7.034 11.329V11.329Z" fill="var(--fill-0, black)"/>
</g>
</g>
</svg>
